<svg width="41" height="40" viewBox="0 0 41 40" fill="none" xmlns="http://www.w3.org/2000/svg">
<path d="M15.1121 5L12.0621 8.33333H6.77877C4.94543 8.33333 3.44543 9.83333 3.44543 11.6667V31.6667C3.44543 33.5 4.94543 35 6.77877 35H33.4454C35.2788 35 36.7788 33.5 36.7788 31.6667V11.6667C36.7788 9.83333 35.2788 8.33333 33.4454 8.33333H28.1621L25.1121 5H15.1121ZM20.1121 30C15.5121 30 11.7788 26.2667 11.7788 21.6667C11.7788 17.0667 15.5121 13.3333 20.1121 13.3333C24.7121 13.3333 28.4454 17.0667 28.4454 21.6667C28.4454 26.2667 24.7121 30 20.1121 30Z" fill="#3F51B5"/>
<path d="M20.1121 28.3333L22.1954 23.75L26.7788 21.6667L22.1954 19.5833L20.1121 15L18.0288 19.5833L13.4454 21.6667L18.0288 23.75L20.1121 28.3333Z" fill="#3F51B5"/>
</svg>
